# xmcd
#
# Track frame offsets:
# 150
# 15512
# 32835
# 50927
# 66747
# 80502
# 95347
# 109935
# 123980
# 136070
# 150152
#
# Disc length: 2185 seconds
#
# Revision: 1
# Processed by: cddbd v1.4PL0 Copyright (c) Steve Scherf et al.
# Submitted via: Easy CD Ripper 1.45
#
DISCID=8e08870b
DTITLE=David Ball - David Ball
DYEAR=1994
DGENRE=Country
TTITLE0=Gift Of Love
TTITLE1=David Ball - If She Were Mine
TTITLE2=David Ball - Message In A Bottle
TTITLE3=David Ball - All Over Me
TTITLE4=David Ball - Listen To My Heart
TTITLE5=David Ball - No More Tears
TTITLE6=David Ball - Smokin' Cigarette's
TTITLE7=David Ball - Waiting For Somebody
TTITLE8=David Ball - We're Steppin' Out Tonight
TTITLE9=David Ball - I Was Born With A Broken Heart
TTITLE10=David Ball - Smokin' Cigarette's And Dnki
EXTD=
EXTT0=
EXTT1=
EXTT2=
EXTT3=
EXTT4=
EXTT5=
EXTT6=
EXTT7=
EXTT8=
EXTT9=
EXTT10=
PLAYORDER=
